PathFileType	4	(X/Y/Z)	D:\TRACE\spotREDO_2-26-24\spot_justBody_Motion_1_1-v60.trc
DataRate	CameraRate	NumFrames	NumMarkers	Units	OrigDataRate	OrigDataStartFrame	OrigNumFrames
100.00	100.00	      42	9	mm	100.00	876	      7000
Frame#	Time	front left toe			Front right toe			aft left toe			aft right toe			Arm			FL body			FR body			AL Body			AR Body			
		X1	Y1	Z1	X2	Y2	Z2	X3	Y3	Z3	X4	Y4	Z4	X5	Y5	Z5	X6	Y6	Z6	X7	Y7	Z7	X8	Y8	Z8	X9	Y9	Z9	

876	8.750	-276.02179	21.96714	-65.98518	172.40042	25.78556	-117.81791	-234.15486	10.72343	346.32413	248.98973	19.13088	325.90692	-68.18275	821.80206	-278.11490	-150.57658	561.72742	-254.45068	4.65194	565.96405	-270.52625	-68.61745	545.02930	625.86017	80.20266	544.45886	612.48724	
877	8.760	-275.55386	25.16184	-64.55069	173.58826	25.14204	-117.10195	-233.33228	10.32536	346.74060	249.87889	18.99985	326.25052	-67.04837	821.75867	-277.02271	-149.16818	561.59430	-253.39807	6.34807	565.99512	-269.66806	-67.37296	544.98822	626.90430	80.97338	544.34845	613.37402	
878	8.770	-274.39926	34.72433	-61.41415	174.63191	25.04263	-117.04461	-232.18349	10.28474	346.59589	251.54187	18.95194	326.41022	-66.57691	821.91113	-276.16071	-148.19286	561.43854	-252.72397	7.42435	566.15137	-268.89349	-66.64808	544.99396	627.45465	81.76772	544.60840	614.19019	
879	8.780	-271.91165	46.76691	-58.50570	175.43492	24.94936	-117.11914	-230.93144	10.38669	346.72162	252.16698	19.15192	325.83820	-66.25658	821.76129	-275.58795	-146.65440	560.93152	-251.85266	8.78736	565.79779	-268.04367	-65.35277	545.33624	628.34833	82.85880	545.16919	614.94250	
880	8.790	-275.09592	59.09408	-57.93699	176.46217	24.96368	-117.29243	-230.28900	11.14728	346.37833	252.65797	19.26559	325.84039	-65.50888	821.37311	-275.03214	-146.25876	560.83044	-251.82468	9.81153	565.73767	-267.32208	-64.35521	545.75208	629.16504	83.78207	545.66425	615.86249	
881	8.800	-278.04498	71.14771	-61.94501	177.17079	25.01831	-117.28398	-229.25333	11.04229	346.65567	254.16664	19.76444	325.97281	-64.45518	820.90540	-274.62497	-144.74069	560.20990	-250.05240	10.44243	565.47986	-266.57782	-63.12926	545.97144	630.04413	84.91476	545.97302	616.56329	
882	8.810	-281.06046	82.72787	-67.92880	177.88989	25.00192	-117.23943	-228.09178	11.16604	346.60773	254.88101	19.80132	325.80112	-63.18025	820.75989	-274.06949	-144.49658	560.55377	-249.65222	11.14090	565.49957	-265.81271	-61.92035	546.40997	630.86194	86.31834	546.16809	617.18329	
883	8.820	-280.78500	93.61826	-73.53563	178.76732	25.03287	-117.19584	-227.60564	11.74037	346.42053	255.97641	19.98176	325.74414	-61.94072	820.89270	-273.09485	-143.63277	560.90637	-248.49364	11.70006	565.56647	-265.11008	-60.42376	546.54297	631.60754	87.40620	545.94586	617.81580	
884	8.830	-279.96902	103.50329	-76.26825	179.44264	24.98948	-117.74203	-226.94017	11.98011	346.33038	257.07782	20.11889	325.68915	-61.24443	821.27069	-272.43887	-143.15742	561.12408	-248.08273	12.33080	565.90710	-264.48608	-59.73985	546.42194	632.26843	88.56728	545.72980	618.53333	
885	8.840	-279.58829	112.36321	-76.40007	180.54771	25.10714	-117.57608	-225.72845	11.98465	346.12460	257.57419	20.26002	325.56601	-60.78911	821.79382	-271.48157	-142.50157	561.31567	-247.83488	13.27630	566.01617	-263.89496	-58.73923	546.34772	632.80957	88.89015	545.77509	619.22516	
886	8.850	-280.80676	121.36814	-77.01466	181.45441	24.99309	-117.51196	-225.01729	12.19099	345.93637	258.85733	20.73115	325.66013	-60.55199	821.86542	-270.58899	-141.28177	561.16571	-246.79553	14.27770	566.02820	-263.28436	-58.32757	545.52228	633.12170	89.58936	545.68512	619.78210	
887	8.860	-283.54755	130.38155	-78.08958	182.41196	24.98492	-117.65195	-223.92273	12.34109	346.06384	259.82043	21.20229	325.68607	-59.91428	821.85657	-270.21707	-140.35777	561.10773	-246.34221	15.00714	565.90869	-262.64230	-57.49480	545.63544	633.64813	90.25666	545.79498	620.39832	
888	8.870	-286.90469	138.10704	-81.17339	183.45853	25.00532	-117.36711	-223.06786	12.51422	346.12082	260.41205	21.29640	325.70703	-58.48540	821.53021	-269.83655	-139.28772	560.97711	-245.71399	16.15792	565.62042	-262.09085	-56.92729	545.81561	634.07324	90.81692	545.95032	620.85779	
889	8.880	-290.05264	143.96631	-84.90221	184.12418	24.68385	-117.76072	-222.12006	12.66602	346.21933	261.40167	21.54998	325.72153	-57.33313	821.31470	-269.45221	-138.83923	561.05762	-245.49307	16.72934	565.43817	-261.61417	-55.97307	545.99945	634.90338	91.85767	546.12500	621.42804	
890	8.890	-292.18973	147.39316	-88.72590	185.13727	24.76453	-117.84557	-221.22783	12.89059	345.86343	262.45938	21.68238	325.80963	-56.13787	820.99188	-268.98260	-137.77705	560.84515	-244.69359	17.53555	565.45569	-260.96683	-55.16171	546.04352	635.39880	92.86691	546.22668	622.03058	
891	8.900	-293.41638	147.88535	-91.88070	186.14830	24.72619	-117.71139	-220.36629	13.14405	345.89246	263.35513	21.69953	325.67416	-55.24623	821.08307	-268.48486	-137.07483	560.72296	-244.08878	18.36052	565.53473	-260.56036	-54.40361	546.17389	635.80676	93.51261	546.26416	622.54987	
892	8.910	-294.76077	147.46068	-95.16975	186.85208	24.74463	-117.83671	-219.34444	13.01199	345.83411	264.43625	21.91291	325.65317	-54.98875	821.19080	-268.05753	-136.48280	560.70111	-243.83640	19.34545	565.50299	-260.13037	-53.82904	546.17432	636.24890	94.00864	546.30310	623.00800	
893	8.920	-296.30469	146.52750	-97.75119	187.87086	24.45179	-117.97466	-218.20316	13.30403	345.83896	265.11755	22.04581	325.52872	-54.65264	821.18079	-267.54529	-135.29941	560.52808	-243.30928	19.87973	565.47760	-259.81024	-53.32772	546.22888	636.71692	94.52298	546.42249	623.54480	
894	8.930	-298.10114	146.69789	-100.29181	189.37564	24.35489	-117.82403	-217.71698	13.66746	345.73154	265.77090	22.04505	325.28421	-54.17838	821.09235	-267.06387	-134.58659	560.28113	-242.83900	20.94611	565.33783	-259.22528	-52.82097	546.22742	637.04590	95.05950	546.53406	623.90851	
895	8.940	-300.00864	146.97914	-102.70969	189.71616	24.35547	-118.05284	-216.42343	13.62599	345.53961	267.06921	22.41400	325.29510	-53.60670	820.83887	-266.97598	-133.89641	560.15961	-242.65154	21.53909	565.19720	-258.79312	-51.96811	546.27655	637.40338	95.88972	546.78546	624.25677	
896	8.950	-303.26849	147.70958	-104.95658	190.81369	24.34617	-118.13815	-215.74054	13.84764	345.57367	267.83752	22.58141	325.17209	-52.53196	820.53333	-266.88800	-133.14734	559.94824	-242.43280	22.26034	565.09839	-258.68622	-51.40865	546.40063	637.76807	96.64721	546.95496	624.62488	
897	8.960	-305.74088	148.48647	-107.43967	191.86909	24.25152	-118.13820	-214.72978	13.94237	345.69583	268.36288	22.71881	325.13684	-51.42809	820.21729	-266.79541	-132.62791	559.64691	-241.96445	22.97667	564.71057	-258.11020	-50.73829	546.66870	638.30066	97.23168	547.05182	624.99048	
898	8.970	-307.89749	148.51978	-110.38974	192.88889	24.20324	-118.16727	-213.76668	13.94714	345.83640	269.73312	23.21016	325.25339	-50.76109	819.95221	-266.42065	-131.91150	559.56635	-241.70425	23.50631	564.32745	-257.85757	-49.82690	546.80042	638.62097	97.94094	547.14355	625.44385	
899	8.980	-309.09521	147.72223	-113.24086	193.62688	24.01948	-118.34235	-212.71239	14.05161	345.69412	270.75952	23.37537	325.15854	-50.34206	819.91101	-266.20972	-131.55304	559.62189	-241.70413	24.10179	564.16351	-257.48523	-48.83383	546.86578	638.82959	98.62132	547.14063	625.66888	
900	8.990	-310.33469	145.41747	-116.12951	194.43347	24.18002	-118.37364	-211.73663	14.33510	345.48151	271.54868	23.34999	324.92850	-49.84478	819.74707	-266.03247	-130.60057	559.14337	-241.06786	24.78615	564.09991	-257.19775	-48.32404	547.01630	639.00629	99.49468	547.27264	625.91492	
901	9.000	-312.58545	140.29338	-118.83752	195.43057	24.13293	-118.58160	-210.87450	14.68818	345.56717	272.96945	23.82352	325.08865	-49.16610	819.79663	-265.71069	-129.97354	559.18475	-240.81706	25.63423	564.11053	-256.80972	-47.75629	547.13171	639.26660	100.36176	547.56512	626.16376	
902	9.010	-313.92416	132.70076	-121.81916	196.61536	24.44718	-118.59324	-210.15309	14.61983	345.40198	273.68634	24.03373	324.97153	-48.64288	819.75500	-265.42798	-129.35768	559.18988	-240.71411	26.08921	564.13171	-256.65881	-46.58667	547.37219	639.61597	101.21613	547.82898	626.38055	
903	9.020	-315.63898	123.17016	-124.29221	197.18674	24.12212	-118.83867	-208.92282	14.90142	345.16559	274.68158	24.36690	324.84531	-48.19048	819.64026	-265.23947	-128.67274	558.93665	-240.29172	26.58822	564.06702	-256.56750	-45.92419	547.63281	639.89661	101.94620	548.11755	626.58643	
904	9.030	-317.01212	112.15377	-126.34209	198.20619	23.91252	-118.84895	-208.46494	15.25032	345.05884	275.48111	24.44284	324.66205	-47.89138	819.57367	-265.23230	-128.02354	558.82983	-240.01175	27.31831	564.12073	-256.40714	-45.27350	547.91583	640.17847	102.76499	548.48871	626.77740	
905	9.040	-317.77673	100.18536	-127.75587	199.40146	23.84622	-118.88116	-207.88972	15.78485	344.94791	276.31058	24.55286	324.38400	-47.49493	819.49670	-265.16321	-127.09753	558.59369	-239.55655	28.06797	564.11963	-256.20422	-44.55706	548.17334	640.31354	103.42384	548.85333	626.96478	
906	9.050	-318.39362	88.94765	-128.87978	200.31271	23.93743	-118.94455	-207.51404	16.25344	344.86304	277.65622	24.88633	324.49475	-46.91552	819.53442	-265.00925	-126.99967	558.67230	-239.63457	28.86769	564.08221	-255.95146	-43.79399	548.33875	640.42828	103.65912	549.03247	627.05872	
907	9.060	-319.39813	78.62199	-130.07523	201.31645	23.84462	-118.95082	-205.46686	15.68780	344.90909	278.39053	25.02632	324.37183	-46.20972	819.44946	-264.88788	-126.17715	558.58569	-239.44917	29.44102	564.11426	-255.90141	-43.13737	548.50983	640.61737	104.53293	549.28876	627.27386	
908	9.070	-320.01895	67.90093	-130.27232	202.03229	23.66659	-119.24497	-204.72530	16.12868	344.91440	278.94019	24.88515	324.27328	-45.45484	819.36255	-264.93799	-125.31364	558.58398	-239.36270	29.96351	564.07623	-255.74117	-42.56069	548.64600	640.66840	105.37811	549.50085	627.41711	
909	9.080	-321.02478	57.90862	-130.82915	203.20789	23.64964	-119.07739	-203.22029	15.75425	345.11014	280.45313	25.34872	324.36026	-44.86658	819.29907	-264.91101	-124.89698	558.68030	-239.36505	30.51648	564.00055	-255.64008	-41.96255	548.83270	640.72546	106.07468	549.77289	627.58240	
910	9.090	-321.36078	47.52655	-131.77724	204.21075	23.60334	-119.21494	-202.09930	15.76659	344.99124	281.27090	25.62036	324.23477	-44.26950	819.20172	-264.93936	-124.18700	558.62408	-239.24803	31.47349	563.93225	-255.48271	-41.39219	549.12250	640.79559	106.55924	549.95325	627.68011	
911	9.100	-320.97791	36.78008	-132.16132	205.10454	23.57068	-119.21133	-201.44865	15.91562	345.15060	282.01828	25.83795	324.21326	-43.50033	819.12231	-264.95581	-123.35395	558.45514	-239.23315	31.99540	564.11072	-255.65990	-40.62638	549.39185	640.85059	107.01286	550.16003	627.75800	
912	9.110	-320.37720	26.09667	-132.49731	205.73796	23.65935	-119.31903	-200.91048	16.55143	344.71179	283.30496	26.24730	324.11057	-43.01883	819.13171	-264.99600	-122.85098	558.41565	-239.18739	32.64476	564.07208	-255.51689	-39.96574	549.62830	640.86914	107.79921	550.42517	627.71674	
913	9.120	-321.01450	24.02499	-134.52077	206.55371	23.51189	-119.63686	-199.44701	16.64277	344.61331	283.96906	26.28318	324.02148	-42.76480	819.24048	-265.10211	-122.11698	558.59064	-239.23944	33.40564	564.07550	-255.58160	-39.16106	549.85138	641.04938	108.70406	550.68610	627.84149	
914	9.130	-321.45731	25.40808	-131.60652	207.89459	23.18359	-119.66981	-198.57393	16.82653	344.25992	285.93457	25.02941	323.88345	-41.33558	819.31366	-264.94391	-121.76055	560.12482	-239.88623	34.27102	564.55408	-255.40993	-38.67372	549.83563	641.10785	109.26734	550.73236	627.90527	
915	9.140	-320.11319	25.89850	-131.48711	209.28256	23.48809	-119.20493	-197.85515	17.46762	343.92929	286.33484	25.58057	323.80914	-39.34771	820.46143	-264.86551	-120.37200	560.16412	-239.12062	35.11401	565.11969	-255.39697	-38.38608	550.27710	641.00116	109.57328	550.94849	627.92017	
916	9.150	-318.64664	25.86761	-132.72206	210.17842	23.37322	-119.52137	-196.97371	17.85562	344.11023	286.64020	26.18835	323.49768	-38.36131	821.50519	-264.68665	-119.64334	560.59558	-239.28969	35.45969	565.37695	-255.35310	-38.03234	551.30127	641.07324	110.08358	551.80383	628.04742	
917	9.160	-316.92798	25.69793	-132.14853	211.10727	23.51053	-119.50920	-196.11427	17.81904	343.96240	287.70166	26.75218	323.60919	-37.67288	822.04095	-264.78540	-118.61772	560.64099	-238.91605	36.83621	565.66791	-255.19254	-37.57842	551.93457	641.31763	110.28679	552.59479	628.16968	
